<svg xmlns="http://www.w3.org/2000/svg" xmlns:xlink="http://www.w3.org/1999/xlink" width="197.67" height="77.953" viewBox="0 0 197.67 77.953"><defs><style>.a,.f{fill:none;}.b{fill:#00245b;}.c{fill:#009fae;}.d{clip-path:url(#a);}.e{fill:#cf0025;}.f{stroke:#1a1818;stroke-miterlimit:10;stroke-width:0.25px;}.g{fill:#005897;}.h{fill:#f05b21;}</style><clipPath id="a"><rect class="a" width="197.67" height="77.953"/></clipPath></defs><path class="b" d="M417.721,16.1l7.489,22.552H409.63ZM421.509,0l-21.95,59.135h-4.045V60.77h13.17V59.135h-6.456l6.628-18.593H425.9l6.283,18.593h-6.111V60.77h28.147V59.135h-3.959L428.568,0Z" transform="translate(-256.614)"/><path class="c" d="M319.327,16.1l7.489,22.552H311.235ZM323.114,0l-21.95,59.135h-4.046V60.77h13.17V59.135h-6.456l6.628-18.593H327.5l6.283,18.593h-6.111V60.77h28.147V59.135h-3.959L330.173,0Z" transform="translate(-192.774)"/><g class="d"><path class="e" d="M256.1,1.471l.86,17.9h-1.549c-4.218-12.395-8.78-16.01-19.8-16.01H233.2V31.34h3.873c5.6,0,9.3-4.39,10.674-11.276h1.291V45.542h-1.463c-1.894-8.694-4.906-11.965-10.5-11.965H233.2V59.831h10.673v1.894H211.338V59.831h5.079V3.365h-5.079V1.471Z" transform="translate(-137.118 -0.954)"/><path class="b" d="M154.714,23.077h-1.635c-4.648-14.031-7.317-19.8-15.15-19.8H136.9V59.917h7.317v1.808H112.795V59.917h7.316V3.279h-1.119c-7.833,0-10.759,6.456-15.149,19.8h-1.636l.861-21.606h50.786Z" transform="translate(-66.313 -0.954)"/><path class="b" d="M81.405,190.594H79.584v-1.109h4.83v1.109H82.6v10.149h-1.2Z" transform="translate(-51.635 -122.94)"/><path class="b" d="M101.243,195.291H98.718v4.35h2.867l-.163,1.1h-3.9V189.485h3.867v1.109H98.718v3.6h2.525Z" transform="translate(-63.272 -122.94)"/><path class="b" d="M116.594,200.742l-1.405-4.646h-.017l-1.453,4.646h-1.238l2.007-5.834-1.9-5.424H113.9l1.31,4.149h.017l1.321-4.149H117.8l-1.915,5.266,2.032,5.992Z" transform="translate(-72.979 -122.939)"/><path class="b" d="M132.013,197.15l-.538,3.593h-1.213l1.849-11.258h1.707l1.926,11.258h-1.254l-.579-3.593Zm1.742-1.1c-.394-2.479-.676-4.394-.783-5.459h-.049c-.041.87-.444,3.4-.748,5.459Z" transform="translate(-84.515 -122.94)"/><path class="b" d="M151.071,197.281v.653c0,1.06.366,1.627,1.155,1.627.806,0,1.125-.584,1.125-1.817a2.866,2.866,0,0,0-1.475-2.753c-1.2-.942-1.816-1.511-1.816-3.17,0-1.427.428-2.795,2.194-2.785,1.676.009,2.119,1.125,2.119,2.554v.522h-1.19v-.49c0-.935-.183-1.538-.953-1.538s-.972.677-.972,1.56c0,1.046.209,1.443,1.241,2.224,1.563,1.181,2.058,1.84,2.058,3.709,0,1.583-.452,3.024-2.352,3.024-1.817,0-2.332-1.191-2.332-2.674v-.647Z" transform="translate(-97.239 -122.649)"/><path class="b" d="M176.762,189.485h3.919v1.109H177.96v3.665h2.566v1.109H177.96v5.375h-1.2Z" transform="translate(-114.685 -122.94)"/><rect class="b" width="1.198" height="11.258" transform="translate(67.671 66.545)"/><path class="b" d="M202.672,200.742V189.484H204.1c.607,2.084,2.173,7.986,2.356,8.905h.026c-.066-1.514-.084-3.1-.084-4.934v-3.972h1.129v11.258h-1.382c-.6-2.113-2.212-8.309-2.426-9.205H203.7c.075,1.356.1,3.154.1,5.186v4.019Z" transform="translate(-131.496 -122.939)"/><path class="b" d="M226.766,195.291h-2.525v4.35h2.867l-.163,1.1h-3.9V189.485h3.867v1.109h-2.669v3.6h2.525Z" transform="translate(-144.713 -122.94)"/><path class="b" d="M247.412,197.15l-.538,3.593h-1.213l1.849-11.258h1.707l1.926,11.258h-1.255l-.579-3.593Zm1.742-1.1c-.394-2.479-.676-4.394-.783-5.459h-.049c-.041.87-.445,3.4-.748,5.459Z" transform="translate(-159.388 -122.94)"/><path class="b" d="M267.017,195.485v5.257h-1.2V189.484h1.967c1.692,0,2.524.729,2.524,2.591v.514c0,1.529-.538,2.156-1.146,2.37.714.265,1.047.8,1.047,2.309a29.756,29.756,0,0,0,.11,3.473h-1.167a26.323,26.323,0,0,1-.118-3.383c0-1.458-.205-1.874-1.321-1.874Zm0-1.017h.735c1.069,0,1.35-.619,1.35-1.822v-.5c0-1.028-.28-1.644-1.408-1.644h-.677Z" transform="translate(-172.466 -122.939)"/><path class="b" d="M283.845,190.594h-1.822v-1.109h4.83v1.109h-1.811v10.149h-1.2Z" transform="translate(-182.98 -122.94)"/><path class="b" d="M299.77,197.281v.653c0,1.06.366,1.627,1.155,1.627.806,0,1.125-.584,1.125-1.817a2.866,2.866,0,0,0-1.475-2.753c-1.2-.942-1.816-1.511-1.816-3.17,0-1.427.428-2.795,2.194-2.785,1.676.009,2.119,1.125,2.119,2.554v.522h-1.19v-.49c0-.935-.183-1.538-.953-1.538s-.972.677-.972,1.56c0,1.046.209,1.443,1.241,2.224,1.563,1.181,2.058,1.84,2.058,3.709,0,1.583-.452,3.024-2.352,3.024-1.817,0-2.332-1.191-2.332-2.674v-.647Z" transform="translate(-193.717 -122.649)"/><path class="b" d="M325.335,197.15l-.538,3.593h-1.213l1.849-11.258h1.707l1.926,11.258h-1.255l-.579-3.593Zm1.742-1.1c-.394-2.479-.676-4.394-.783-5.459h-.049c-.041.87-.445,3.4-.748,5.459Z" transform="translate(-209.945 -122.94)"/><path class="b" d="M343.742,189.484h2.042c2.432,0,2.74,1.5,2.74,3.291v4.446c0,1.728-.267,3.521-2.815,3.521h-1.967Zm1.2,10.218h.679c1.363,0,1.682-.771,1.682-2.245v-4.826c0-1.3-.232-2.1-1.672-2.1h-.689Z" transform="translate(-223.024 -122.939)"/><path class="b" d="M368.754,196.045c0-2.064.035-4.288.069-5.493h-.017c-.28,1.889-1.14,6.844-1.742,10.19h-1.172c-.457-2.9-1.344-8.189-1.615-10.2h-.034c.034,1.305.094,3.86.094,5.788v4.41h-1.114V189.484H365c.617,3.328,1.356,7.454,1.508,8.888h.016c.176-1.4,1.038-5.758,1.653-8.888h1.739v11.258h-1.161Z" transform="translate(-235.663 -122.939)"/><rect class="b" width="1.198" height="11.258" transform="translate(136.559 66.545)"/><path class="b" d="M398.826,200.742V189.484h1.429c.607,2.084,2.173,7.986,2.357,8.905h.026c-.066-1.514-.084-3.1-.084-4.934v-3.972h1.129v11.258H402.3c-.6-2.113-2.213-8.309-2.426-9.205h-.017c.075,1.356.1,3.154.1,5.186v4.019Z" transform="translate(-258.763 -122.939)"/><rect class="b" width="1.198" height="11.258" transform="translate(147.225 66.545)"/><path class="b" d="M428.893,197.281v.653c0,1.06.366,1.627,1.155,1.627.806,0,1.125-.584,1.125-1.817a2.866,2.866,0,0,0-1.476-2.753c-1.2-.942-1.815-1.511-1.815-3.17,0-1.427.427-2.795,2.194-2.785,1.676.009,2.119,1.125,2.119,2.554v.522H431v-.49c0-.935-.183-1.538-.953-1.538s-.971.677-.971,1.56c0,1.046.208,1.443,1.241,2.224,1.563,1.181,2.058,1.84,2.058,3.709,0,1.583-.452,3.024-2.352,3.024-1.817,0-2.332-1.191-2.332-2.674v-.647Z" transform="translate(-277.493 -122.649)"/><path class="b" d="M445.883,190.594h-1.822v-1.109h4.83v1.109h-1.811v10.149h-1.2Z" transform="translate(-288.112 -122.94)"/><path class="b" d="M463.218,195.485v5.257h-1.2V189.484h1.967c1.692,0,2.524.729,2.524,2.591v.514c0,1.529-.538,2.156-1.146,2.37.714.265,1.047.8,1.047,2.309a29.756,29.756,0,0,0,.11,3.473h-1.167a26.329,26.329,0,0,1-.118-3.383c0-1.458-.205-1.874-1.321-1.874Zm0-1.017h.735c1.069,0,1.35-.619,1.35-1.822v-.5c0-1.028-.28-1.644-1.408-1.644h-.677Z" transform="translate(-299.764 -122.939)"/><path class="b" d="M480.8,197.15l-.538,3.593h-1.213l1.849-11.258H482.6l1.926,11.258h-1.255l-.579-3.593Zm1.742-1.1c-.394-2.479-.676-4.394-.783-5.459h-.049c-.041.87-.445,3.4-.748,5.459Z" transform="translate(-310.812 -122.94)"/><path class="b" d="M496.888,190.594h-1.822v-1.109H499.9v1.109h-1.811v10.149h-1.2Z" transform="translate(-321.204 -122.94)"/><path class="b" d="M517.03,191.973v5.673c0,1.978-.815,2.969-2.492,2.969-1.744,0-2.381-1.111-2.381-2.954v-5.687c0-1.912.87-2.917,2.462-2.917,1.664,0,2.412,1.137,2.412,2.916m-3.651-.055v5.842c0,1.266.46,1.77,1.215,1.77.8,0,1.213-.489,1.213-1.823v-5.787c0-1.195-.411-1.768-1.223-1.768s-1.206.541-1.206,1.766" transform="translate(-332.293 -122.662)"/><path class="b" d="M533.177,195.485v5.257h-1.2V189.484h1.967c1.692,0,2.524.729,2.524,2.591v.514c0,1.529-.538,2.156-1.146,2.37.714.265,1.047.8,1.047,2.309a29.742,29.742,0,0,0,.11,3.473h-1.167a26.317,26.317,0,0,1-.118-3.383c0-1.458-.205-1.874-1.321-1.874Zm0-1.017h.735c1.069,0,1.35-.619,1.35-1.822v-.5c0-1.028-.28-1.644-1.408-1.644h-.677Z" transform="translate(-345.154 -122.939)"/><path class="b" d="M550.72,197.281v.653c0,1.06.366,1.627,1.155,1.627.806,0,1.125-.584,1.125-1.817a2.866,2.866,0,0,0-1.475-2.753c-1.2-.942-1.816-1.511-1.816-3.17,0-1.427.428-2.795,2.194-2.785,1.676.009,2.119,1.125,2.119,2.554v.522h-1.19v-.49c0-.935-.183-1.538-.953-1.538s-.972.677-.972,1.56c0,1.046.209,1.443,1.241,2.224,1.563,1.181,2.058,1.84,2.058,3.709,0,1.583-.452,3.024-2.352,3.024-1.817,0-2.332-1.191-2.332-2.674v-.647Z" transform="translate(-356.536 -122.649)"/><path class="f" d="M57.57,27.13a2.573,2.573,0,0,1,1.221,1.524c.136.581-.11.769-.1,1.834.006.853.187.9.161,1.718-.019.678-.045,1.363-.465,1.641-.478.316-1.169-.078-1.3.181-.071.129.129.239.245.7.116.433.194.743.045.995-.162.278-.413.175-.536.407-.219.407.5.9.323,1.479-.1.316-.349.3-.458.671s.123.543.084.859c-.071.6-.995.685-2.106,1.563-.62.491-.5.6-1.156,1.156a7.843,7.843,0,0,1-2.17,1.266c-2.118.9-2.441.788-4.25,1.538-.975.4-.788.4-3.436,1.627a16.963,16.963,0,0,1-1.789.872,3.575,3.575,0,0,0-1.046.562,1.949,1.949,0,0,0-.362.368,4.444,4.444,0,0,0-.71,2.338,8.611,8.611,0,0,0,0,1.731c.129,1.957.517,2.119.3,2.952-.265,1.047-.956.969-1.053,2-.058.64.174.924.123,2.015-.032.653-.065,1.2-.394,1.376-.349.181-.872-.11-1.221-.3a7.23,7.23,0,0,1-.814-.614c-.575-.439-.594-.426-.878-.659-.394-.323-.355-.362-.73-.639a8.556,8.556,0,0,0-.846-.588,7.914,7.914,0,0,0-.743-.355c-.349-.149-.594-.245-1.279-.5-.975-.362-1.059-.394-1.272-.491a7.924,7.924,0,0,1-.969-.53c-1.227-.833-1.414-2.861-1.479-3.54-.136-1.479.245-1.763-.162-2.629a8.12,8.12,0,0,0-1.1-1.569c-.51-.6-.762-.749-.917-1.221-.2-.614.09-.762-.1-1.324-.252-.73-.814-.659-1.117-1.427-.219-.556.026-.7-.207-1.324-.226-.6-.536-.666-.917-1.221-.62-.9-.168-1.266-.71-2.338a4.364,4.364,0,0,0-1.66-1.737,6.461,6.461,0,0,0-1.6-.6,6.08,6.08,0,0,0-1.428-.3,11.542,11.542,0,0,0-1.324,0s-.562.484-.917.814a11.921,11.921,0,0,0-1.221,1.324c-.672.852-.659,1.1-1.021,1.22a1.541,1.541,0,0,1-1.524-.51c-.433-.5-.188-.93-.666-1.666a4.788,4.788,0,0,0-.755-.775c-.995-.9-1.466-.833-2.138-1.428A7.683,7.683,0,0,1,7.5,32.833c-.4-.924-.5-1.369-1.021-1.731-.446-.31-.736-.226-1.208-.62-.394-.329-.284-.439-.827-1.208-.775-1.111-1.117-1.363-1.408-1.821-.11-.175-.168-.317-.219-.413-.452-.937-.4-1.389-.7-2.067a3.76,3.76,0,0,0-.73-1.091c-.3-.316-.794-.917-.607-1.317.207-.459,1.188-.42,1.525-.407,1.86.058,8.189.045,16.993,0q.252-10.453.491-20.875l15.139-.019a18.385,18.385,0,0,1,.052,2.977c-.026.388-.181,2.435-.207,3.359-.019.736.007.555.065,3.2s.026,3.436.543,3.72c.484.265.969-.187,1.627.207.459.271.336.562.814.917a3.307,3.307,0,0,0,2.034.407,8.656,8.656,0,0,0,1.479-.1c1.214-.187,1.686-.555,3.094-.336a12.734,12.734,0,0,1,2.241.536,4.706,4.706,0,0,0,2.112.523,6.641,6.641,0,0,0,.943-.219,5.136,5.136,0,0,1,3.152.3,9.725,9.725,0,0,0,.917.51,7.093,7.093,0,0,0,1.834.407c1.311.181,1.46.1,1.627.3a2.442,2.442,0,0,1,.207,1.834,22.735,22.735,0,0,0-.1,5.089A21.179,21.179,0,0,0,57.57,27.13Z" transform="translate(-0.483 -0.819)"/><path class="e" d="M43.336,21.023c-.059-2.659-.085-2.477-.065-3.217,0-.123.009-.268.017-.424L27.757,29.938q-.03,1.26-.06,2.518l-3.073.015-9.953,8.048a5.09,5.09,0,0,1-.767.535,5.864,5.864,0,0,1,.891.4c.526.364.624.812,1.027,1.742l.122.284,27.4-22.151c0-.1,0-.2-.007-.31" transform="translate(-9.021 -11.278)"/><path class="e" d="M102.475,163.207a7.262,7.262,0,0,0,.819.617c.351.2.878.487,1.228.306.332-.176.364-.728.4-1.384.048-1.023-.149-1.345-.129-1.9l-2.631,2.128c.084.062.184.137.316.238" transform="translate(-66.282 -104.356)"/><path class="e" d="M60.386.465,54.26.473l-.177,7.6L57.951,2.3A5.546,5.546,0,0,1,60.386.465" transform="translate(-35.09 -0.302)"/><path class="e" d="M59.233,35.013c-.366-.2-.458-.658-.5-1.839L37.565,60.662a1.038,1.038,0,0,0,.258-.046c.364-.124.351-.37,1.027-1.228a12.024,12.024,0,0,1,1.228-1.332c.358-.332.923-.819.923-.819a11.6,11.6,0,0,1,1.332,0,4.848,4.848,0,0,1,.894.152L60.42,35.062c-.447-.059-.817.153-1.187-.049" transform="translate(-24.373 -21.524)"/><path class="e" d="M9.978,60.328c-1.38,0-2.624,0-3.716,0L3.831,63.958c-.872,1.3-1.569,1.129-1.549-.38l.043-3.269c-.3,0-.55-.01-.748-.017C1.237,60.28.249,60.241.042,60.7c-.189.4.312,1.008.611,1.326a3.785,3.785,0,0,1,.734,1.1c.3.683.247,1.138.7,2.08a4.7,4.7,0,0,0,.221.415c.293.461.637.715,1.417,1.833.515.73.451.871.775,1.163a4.31,4.31,0,0,1,.432-.767Z" transform="translate(0 -39.114)"/><path class="e" d="M101.849,53.019a21.216,21.216,0,0,1-.208-2.242c-.017-.5-.033-.959-.045-1.375L89.264,67.8c-.946,1.411-1.7,1.226-1.681-.412l.154-11.811a5.667,5.667,0,0,1,3-4.445l11.006-5.455,0-.017a2.459,2.459,0,0,0-.208-1.846c-.169-.2-.319-.123-1.638-.306-.361-.05-.642-.1-.876-.142l-8.24,4.084c-1.628.807-2.943.127-2.921-1.511l.023-1.774a2.938,2.938,0,0,1,1.725-2.545c-.288-.064-.617-.129-.982-.186-1.417-.221-1.892.15-3.113.339-.1.016-.368.055-.742.079L84.6,55.3a6.125,6.125,0,0,1-2.531,4.4L68.837,68.5a1.786,1.786,0,0,1,.137.284c.234.624-.013.774.208,1.332s.565.676.839.965L83.8,61.92c1.372-.913,1.555-.74.406.383L73.5,72.766a6.994,6.994,0,0,1-2.178,1.342l.008.01A8.16,8.16,0,0,1,72.444,75.7c.409.871.026,1.157.163,2.646l0,.048a6.343,6.343,0,0,1,3.206-.953l8.075.105a8.768,8.768,0,0,1,.333-2.637,3.518,3.518,0,0,1-.7.062L79,74.908c-1.727-.022-2.2-.96-1.051-2.084L84.72,66.2c1.149-1.124,2.073-.808,2.053.7l-.07,5.363a2.394,2.394,0,0,1-.118.7c.432-.206.844-.462,1.277-.662,2.665-1.235,2.476-1.235,3.458-1.638.116-.048.225-.092.33-.134l11.142-16.618a3.318,3.318,0,0,0-.942-.895" transform="translate(-44.662 -26.836)"/><path class="g" d="M68.881,6.385c.048-1.024.168-2.618.191-2.956a18.552,18.552,0,0,0-.052-3L59.911.445A5.544,5.544,0,0,0,57.475,2.28L53.608,8.048q-.127,5.443-.257,10.894Z" transform="translate(-34.615 -0.281)"/><path class="g" d="M23.92,60.348c-2.056.009-3.941.016-5.625.02L13.25,67.892a4.311,4.311,0,0,0-.432.768c.019.018.035.033.057.052a1.775,1.775,0,0,0,.324.219,5.089,5.089,0,0,0,.767-.535Z" transform="translate(-8.316 -39.154)"/><path class="c" d="M47.113,28.633l-27.4,22.151a6.879,6.879,0,0,0,1.411,2.478c.676.6,1.15.533,2.151,1.436a4.841,4.841,0,0,1,.761.78c.481.741.234,1.176.669,1.677a1.643,1.643,0,0,0,1.276.559L47.151,30.228c-.015-.428-.025-.953-.038-1.595" transform="translate(-12.791 -18.577)"/><path class="h" d="M74.771,53.473l.176-13.449c-.218.014-.471.022-.747.018a3.332,3.332,0,0,1-2.047-.409c-.481-.358-.358-.65-.819-.923a1.146,1.146,0,0,0-.451-.159L53.689,60.877c.17.044.343.093.543.153a6.506,6.506,0,0,1,1.606.6,4.391,4.391,0,0,1,1.67,1.749c.546,1.079.091,1.449.715,2.353.312.455.576.587.786.945l13.231-8.8a6.124,6.124,0,0,0,2.531-4.4" transform="translate(-34.834 -25.012)"/><path class="h" d="M8.044,64l2.431-3.626c-1.707,0-3.042-.008-3.938-.022L6.494,63.62c-.02,1.509.677,1.68,1.549.38" transform="translate(-4.213 -39.156)"/><path class="c" d="M86.39,99.2c1.149-1.124.966-1.3-.406-.383l-13.776,9.165a1.243,1.243,0,0,1,.285.471c.195.565-.1.715.1,1.332.155.472.407.623.915,1.219a7,7,0,0,0,2.178-1.342Z" transform="translate(-46.849 -63.734)"/><path class="c" d="M143.124,87.435c.111-.377.364-.358.461-.676.176-.585-.546-1.079-.325-1.488.123-.234.377-.13.539-.409.149-.254.071-.565-.046-1-.117-.468-.319-.579-.247-.709.13-.26.825.137,1.306-.182.422-.28.448-.969.468-1.651.026-.825-.156-.871-.163-1.729-.007-1.073.241-1.261.1-1.846a1.927,1.927,0,0,0-.287-.639L133.795,93.723c1.539-.609,1.951-.561,3.947-1.413a7.888,7.888,0,0,0,2.184-1.274c.663-.559.539-.669,1.163-1.163a9.117,9.117,0,0,1,1.473-.9s.479-.236.584-.472a.684.684,0,0,0,.063-.2c.039-.319-.2-.475-.085-.865" transform="translate(-86.808 -50.027)"/><path class="c" d="M122.368,63.536l-.154,11.811c-.021,1.638.735,1.823,1.681.412l12.332-18.394a16.176,16.176,0,0,1,.145-3.73l-11.006,5.455a5.667,5.667,0,0,0-3,4.445" transform="translate(-79.294 -34.8)"/><path class="c" d="M123.035,44.631l-.023,1.774c-.021,1.638,1.293,2.318,2.921,1.511l8.24-4.084a4.71,4.71,0,0,1-.97-.268,9.9,9.9,0,0,1-.923-.513,5.168,5.168,0,0,0-3.172-.306,6.627,6.627,0,0,1-.949.221,4.736,4.736,0,0,1-2.125-.526,10.863,10.863,0,0,0-1.273-.354,2.938,2.938,0,0,0-1.725,2.545" transform="translate(-79.811 -27.306)"/><path class="c" d="M79.585,145.037c.069.723.275,2.693,1.484,3.514a7.912,7.912,0,0,0,.975.533c.215.1.3.13,1.28.494.689.254.936.351,1.287.5a7.891,7.891,0,0,1,.747.357,8.572,8.572,0,0,1,.852.592c.377.28.338.319.734.643.221.181.286.216.568.425l2.631-2.128c0-.041,0-.08.005-.124.1-1.04.793-.962,1.06-2.015.214-.839-.176-1-.306-2.97-.018-.241-.03-.457-.037-.67l-8.075-.105a6.342,6.342,0,0,0-3.206.953" transform="translate(-51.636 -93.483)"/><path class="g" d="M102.44,111.543c.02-1.509-.9-1.825-2.053-.7l-6.775,6.625c-1.149,1.124-.676,2.061,1.051,2.084l4.531.059a3.548,3.548,0,0,0,.7-.062,2.827,2.827,0,0,1,.419-.788,1.974,1.974,0,0,1,.364-.37,3.6,3.6,0,0,1,1.053-.565,4.373,4.373,0,0,0,.523-.215,2.4,2.4,0,0,0,.119-.7Z" transform="translate(-60.329 -71.479)"/><path class="b" d="M506.206.461h-.858V0h2.275V.461h-.858V2.878h-.558ZM508.115,0h.7l.733,2.166h.041L510.323,0h.658l.225,2.875h-.542L510.522.853h-.041L509.8,2.878h-.533L508.6.853h-.042l-.133,2.025h-.508Z" transform="translate(-327.875 -0.002)"/></g></svg>